<svg xmlns="http://www.w3.org/2000/svg" xmlns:xlink="http://www.w3.org/1999/xlink" width="128" zoomAndPan="magnify" viewBox="0 0 96 95.999999" height="128" preserveAspectRatio="xMidYMid meet" version="1.2"><defs><clipPath id="9904be4449"><path d="M 5.585938 0 L 90.335938 0 L 90.335938 96 L 5.585938 96 Z M 5.585938 0 "/></clipPath></defs><g id="27d5a59633"><g clip-rule="nonzero" clip-path="url(#9904be4449)"><path style=" stroke:none;fill-rule:nonzero;fill:#336699;fill-opacity:1;" d="M 5.613281 28.421875 L 5.613281 67.515625 C 5.613281 70.550781 7.234375 73.351562 9.859375 74.871094 L 43.714844 94.414062 C 46.34375 95.933594 49.578125 95.933594 52.207031 94.414062 L 86.0625 74.871094 C 88.6875 73.351562 90.304688 70.550781 90.304688 67.515625 L 90.304688 28.421875 C 90.304688 25.390625 88.6875 22.585938 86.0625 21.070312 L 52.207031 1.523438 C 49.578125 0.0078125 46.34375 0.0078125 43.714844 1.523438 L 9.859375 21.070312 C 7.234375 22.585938 5.613281 25.390625 5.613281 28.421875 Z M 5.613281 28.421875 "/></g><g style="fill:#ffffff;fill-opacity:1;"><g transform="translate(18.52781, 69.845479)"><path style="stroke:none" d="M 13.984375 -17.296875 L 13.984375 -7.140625 C 13.984375 -6.242188 13.957031 -5.367188 13.90625 -4.515625 C 13.851562 -3.660156 13.671875 -2.894531 13.359375 -2.21875 C 13.054688 -1.550781 12.582031 -1.015625 11.9375 -0.609375 C 11.289062 -0.203125 10.363281 0 9.15625 0 C 7.976562 0 7.070312 -0.203125 6.4375 -0.609375 C 5.800781 -1.015625 5.335938 -1.550781 5.046875 -2.21875 C 4.753906 -2.894531 4.582031 -3.660156 4.53125 -4.515625 C 4.476562 -5.367188 4.453125 -6.242188 4.453125 -7.140625 L 4.453125 -36.734375 C 4.453125 -37.628906 4.476562 -38.503906 4.53125 -39.359375 C 4.582031 -40.222656 4.753906 -40.988281 5.046875 -41.65625 C 5.335938 -42.320312 5.800781 -42.859375 6.4375 -43.265625 C 7.070312 -43.671875 7.976562 -43.875 9.15625 -43.875 L 19.5 -43.875 C 22.082031 -43.75 24.398438 -43.207031 26.453125 -42.25 C 27.328125 -41.832031 28.175781 -41.304688 29 -40.671875 C 29.832031 -40.046875 30.578125 -39.28125 31.234375 -38.375 C 31.890625 -37.46875 32.414062 -36.390625 32.8125 -35.140625 C 33.207031 -33.898438 33.40625 -32.46875 33.40625 -30.84375 C 33.40625 -28.601562 33.054688 -26.640625 32.359375 -24.953125 C 31.660156 -23.273438 30.644531 -21.867188 29.3125 -20.734375 C 27.988281 -19.597656 26.367188 -18.738281 24.453125 -18.15625 C 22.546875 -17.582031 20.390625 -17.296875 17.984375 -17.296875 Z M 18.234375 -24.765625 C 19.285156 -24.828125 20.226562 -25.078125 21.0625 -25.515625 C 21.414062 -25.703125 21.757812 -25.941406 22.09375 -26.234375 C 22.425781 -26.523438 22.726562 -26.882812 23 -27.3125 C 23.269531 -27.738281 23.484375 -28.242188 23.640625 -28.828125 C 23.796875 -29.421875 23.875 -30.09375 23.875 -30.84375 C 23.875 -31.550781 23.796875 -32.171875 23.640625 -32.703125 C 23.484375 -33.234375 23.28125 -33.691406 23.03125 -34.078125 C 22.78125 -34.460938 22.5 -34.789062 22.1875 -35.0625 C 21.875 -35.34375 21.550781 -35.578125 21.21875 -35.765625 C 20.425781 -36.160156 19.535156 -36.398438 18.546875 -36.484375 L 13.984375 -36.484375 L 13.984375 -24.765625 Z M 18.234375 -24.765625 "/></g></g><g style="fill:#ffffff;fill-opacity:1;"><g transform="translate(52.436423, 69.845479)"><path style="stroke:none" d="M 17.671875 -31.34375 C 18.191406 -31.34375 18.722656 -31.3125 19.265625 -31.25 C 19.816406 -31.1875 20.304688 -31.03125 20.734375 -30.78125 C 21.160156 -30.53125 21.507812 -30.140625 21.78125 -29.609375 C 22.050781 -29.085938 22.1875 -28.367188 22.1875 -27.453125 C 22.1875 -26.597656 22.050781 -25.925781 21.78125 -25.4375 C 21.507812 -24.945312 21.160156 -24.566406 20.734375 -24.296875 C 20.304688 -24.035156 19.816406 -23.867188 19.265625 -23.796875 C 18.722656 -23.722656 18.191406 -23.6875 17.671875 -23.6875 L 15.796875 -23.6875 L 15.796875 -7.078125 C 15.796875 -6.160156 15.75 -5.28125 15.65625 -4.4375 C 15.5625 -3.59375 15.34375 -2.835938 15 -2.171875 C 14.65625 -1.515625 14.148438 -0.988281 13.484375 -0.59375 C 12.828125 -0.195312 11.945312 0 10.84375 0 C 9.78125 0 8.9375 -0.195312 8.3125 -0.59375 C 7.695312 -0.988281 7.234375 -1.515625 6.921875 -2.171875 C 6.609375 -2.835938 6.410156 -3.59375 6.328125 -4.4375 C 6.242188 -5.28125 6.203125 -6.160156 6.203125 -7.078125 L 6.203125 -23.6875 L 4.453125 -23.6875 C 3.867188 -23.6875 3.304688 -23.722656 2.765625 -23.796875 C 2.234375 -23.867188 1.765625 -24.035156 1.359375 -24.296875 C 0.953125 -24.566406 0.625 -24.945312 0.375 -25.4375 C 0.125 -25.925781 0 -26.597656 0 -27.453125 C 0 -28.367188 0.125 -29.085938 0.375 -29.609375 C 0.625 -30.140625 0.953125 -30.53125 1.359375 -30.78125 C 1.765625 -31.03125 2.234375 -31.1875 2.765625 -31.25 C 3.304688 -31.3125 3.867188 -31.34375 4.453125 -31.34375 L 6.203125 -31.34375 C 6.203125 -33.175781 6.285156 -34.863281 6.453125 -36.40625 C 6.617188 -37.957031 7.023438 -39.28125 7.671875 -40.375 C 8.328125 -41.476562 9.289062 -42.335938 10.5625 -42.953125 C 11.832031 -43.566406 13.578125 -43.875 15.796875 -43.875 C 16.734375 -43.875 17.617188 -43.789062 18.453125 -43.625 C 19.296875 -43.457031 20.03125 -43.195312 20.65625 -42.84375 C 21.28125 -42.488281 21.773438 -42.023438 22.140625 -41.453125 C 22.503906 -40.878906 22.6875 -40.179688 22.6875 -39.359375 C 22.6875 -38.609375 22.554688 -37.984375 22.296875 -37.484375 C 22.035156 -36.984375 21.71875 -36.578125 21.34375 -36.265625 C 20.96875 -35.953125 20.554688 -35.734375 20.109375 -35.609375 C 19.660156 -35.484375 19.25 -35.421875 18.875 -35.421875 C 18.550781 -35.421875 18.253906 -35.492188 17.984375 -35.640625 C 17.710938 -35.785156 17.398438 -35.859375 17.046875 -35.859375 C 16.753906 -35.859375 16.53125 -35.765625 16.375 -35.578125 C 16.21875 -35.390625 16.09375 -35.132812 16 -34.8125 C 15.90625 -34.5 15.847656 -34.15625 15.828125 -33.78125 C 15.804688 -33.40625 15.796875 -33.03125 15.796875 -32.65625 L 15.796875 -31.34375 Z M 17.671875 -31.34375 "/></g></g></g></svg>